# xmcd
#
# Track frame offsets:
#	150
#	22713
#	35068
#	52265
#	63567
#	76391
#	89078
#	108079
#	119393
#	130672
#	142967
#	154782
#	166927
#
# Disc length: 2427 seconds
#
# Revision: 1
# Processed by: cddbd v1.4PL0 Copyright (c) Steve Scherf et al.
# Submitted via: EasyCDDAExtractor 5.0.7
#
DISCID=a909790d
DTITLE=The Cajun Aces - Deaf Hieghts - Les Flammes D'Enfer
DYEAR=1987
DGENRE=Country
TTITLE0=Les Flammes D'Enfer
TTITLE1=Madame Edouarde
TTITLE2=New Pinegrove Blues
TTITLE3=Grand Mamou
TTITLE4=Moi Et Mon Cousin
TTITLE5=La Danse De La Limonade
TTITLE6=Bosco Strip
TTITLE7=Bayou Pom Pom
TTITLE8=Colinda
TTITLE9=La Robe Barree
TTITLE10=Allona A Lafayette
TTITLE11='Tit Galot
TTITLE12=Hackberry Zydeco
EXTD=
EXTT0=
EXTT1=
EXTT2=
EXTT3=
EXTT4=
EXTT5=
EXTT6=
EXTT7=
EXTT8=
EXTT9=
EXTT10=
EXTT11=
EXTT12=
PLAYORDER=
